<svg width="20" height="20" viewBox="0 0 20 20" fill="none" xmlns="http://www.w3.org/2000/svg">
<g clip-path="url(#clip0_31_6021)">
<g filter="url(#filter0_d_31_6021)">
<path d="M10 20C15.5228 20 20 15.5228 20 10C20 4.47715 15.5228 0 10 0C4.47715 0 0 4.47715 0 10C0 15.5228 4.47715 20 10 20Z" fill="white"/>
</g>
<path d="M12.7402 2.75726C12.7103 2.72282 11.6361 2.77085 10.7014 3.81938C9.76657 4.867 9.91038 6.06868 9.93142 6.09949C9.95247 6.1303 11.2643 6.17833 12.1018 4.95943C12.9392 3.74053 12.77 2.7926 12.7402 2.75726ZM15.6462 13.3902C15.6041 13.3032 13.6074 12.2719 13.7933 10.2891C13.9792 8.30529 15.2622 7.76154 15.2823 7.70264C15.3025 7.64373 14.7588 6.9867 14.1827 6.65411C13.7597 6.41962 13.2915 6.28528 12.8121 6.2608C12.7174 6.25808 12.3885 6.17471 11.7124 6.36593C11.267 6.49189 10.2629 6.8997 9.98667 6.91602C9.70957 6.93233 8.88527 6.44296 7.99872 6.31336C7.43136 6.20008 6.8298 6.43208 6.39924 6.61061C5.96955 6.78824 5.15227 7.29392 4.58053 8.63788C4.00879 9.98094 4.30781 12.1088 4.52178 12.7704C4.73574 13.431 5.06984 14.514 5.63808 15.3042C6.14318 16.196 6.81314 16.8149 7.09287 17.0252C7.37261 17.2354 8.16182 17.375 8.70901 17.0859C9.14922 16.8068 9.9437 16.6464 10.2576 16.6582C10.5707 16.6699 11.188 16.7977 11.8203 17.1466C12.321 17.3251 12.7945 17.2508 13.2689 17.0515C13.7433 16.8512 14.43 16.0918 15.2315 14.552C15.5357 13.8361 15.6743 13.4491 15.6462 13.3902Z" fill="#25253F"/>
<path d="M12.8403 2.75726C12.8104 2.72282 11.7362 2.77085 10.8014 3.81938C9.86666 4.867 10.0105 6.06868 10.0315 6.09949C10.0526 6.1303 11.3644 6.17833 12.2019 4.95943C13.0393 3.74053 12.8701 2.7926 12.8403 2.75726ZM15.7463 13.3902C15.7042 13.3032 13.7075 12.2719 13.8934 10.2891C14.0793 8.30529 15.3622 7.76154 15.3824 7.70264C15.4026 7.64373 14.8589 6.9867 14.2828 6.65411C13.8598 6.41962 13.3916 6.28528 12.9122 6.2608C12.8175 6.25808 12.4886 6.17471 11.8125 6.36593C11.3671 6.49189 10.363 6.8997 10.0868 6.91602C9.80966 6.93233 8.98537 6.44296 8.09882 6.31336C7.53146 6.20008 6.9299 6.43208 6.49934 6.61061C6.06965 6.78824 5.25237 7.29392 4.68063 8.63788C4.10888 9.98094 4.40791 12.1088 4.62187 12.7704C4.83584 13.431 5.16994 14.514 5.73818 15.3042C6.24328 16.196 6.91324 16.8149 7.19297 17.0252C7.4727 17.2354 8.26192 17.375 8.80911 17.0859C9.24932 16.8068 10.0438 16.6464 10.3577 16.6582C10.6708 16.6699 11.2881 16.7977 11.9204 17.1466C12.4211 17.3251 12.8946 17.2508 13.369 17.0515C13.8434 16.8512 14.5301 16.0918 15.3316 14.552C15.6358 13.8361 15.7744 13.4491 15.7463 13.3902Z" fill="#25253F"/>
</g>
<defs>
<filter id="filter0_d_31_6021" x="-10" y="-8" width="40" height="40" filterUnits="userSpaceOnUse" color-interpolation-filters="sRGB">
<feFlood flood-opacity="0" result="BackgroundImageFix"/>
<feColorMatrix in="SourceAlpha" type="matrix" values="0 0 0 0 0 0 0 0 0 0 0 0 0 0 0 0 0 0 127 0" result="hardAlpha"/>
<feOffset dy="2"/>
<feGaussianBlur stdDeviation="5"/>
<feComposite in2="hardAlpha" operator="out"/>
<feColorMatrix type="matrix" values="0 0 0 0 0 0 0 0 0 0 0 0 0 0 0 0 0 0 0.08 0"/>
<feBlend mode="normal" in2="BackgroundImageFix" result="effect1_dropShadow_31_6021"/>
<feBlend mode="normal" in="SourceGraphic" in2="effect1_dropShadow_31_6021" result="shape"/>
</filter>
<clipPath id="clip0_31_6021">
<rect width="20" height="20" fill="white"/>
</clipPath>
</defs>
</svg>
