<svg width="21" height="20" viewBox="0 0 21 20" fill="none" xmlns="http://www.w3.org/2000/svg">
<g clip-path="url(#clip0_6_2996)">
<g filter="url(#filter0_d_6_2996)">
<path d="M10.5 20C16.0228 20 20.5 15.5228 20.5 10C20.5 4.47715 16.0228 0 10.5 0C4.97715 0 0.5 4.47715 0.5 10C0.5 15.5228 4.97715 20 10.5 20Z" fill="white"/>
</g>
<path d="M18.4988 10.1779C18.5085 9.62789 18.4506 9.07877 18.3263 8.54236H10.6626V11.5112H15.1611C15.0759 12.0317 14.8841 12.53 14.5974 12.9761C14.3106 13.4221 13.9347 13.8067 13.4924 14.1067L13.4767 14.2061L15.8999 16.0459L16.0677 16.0624C17.6095 14.6668 18.4985 12.6134 18.4985 10.1779" fill="#4285F4"/>
<path d="M10.6627 18.0003C12.8665 18.0003 14.7168 17.2892 16.0683 16.0625L13.4924 14.1069C12.8032 14.5781 11.8781 14.907 10.6627 14.907C9.63044 14.9011 8.62633 14.5768 7.79278 13.98C6.95924 13.3833 6.3386 12.5444 6.01891 11.5825L5.92325 11.5905L3.40354 13.5016L3.37061 13.5914C4.04923 14.9169 5.09068 16.0312 6.37852 16.8099C7.66636 17.5885 9.1498 18.0007 10.663 18.0003" fill="#34A853"/>
<path d="M6.01897 11.5827C5.84043 11.0735 5.7483 10.539 5.74625 10.0005C5.74954 9.46296 5.83827 8.92916 6.00925 8.41836L6.0047 8.31231L3.4541 6.37048L3.37066 6.40937C2.79819 7.5233 2.5 8.7532 2.5 10.0005C2.5 11.2477 2.79819 12.4776 3.37066 13.5915L6.01897 11.5827Z" fill="#FBBC05"/>
<path d="M10.6627 5.09377C11.8324 5.07597 12.9636 5.50289 13.819 6.28493L16.1228 4.08043C14.6452 2.72194 12.6886 1.97656 10.6627 2.00043C9.14957 2.00008 7.66614 2.41225 6.3783 3.19085C5.09047 3.96945 4.049 5.08379 3.37036 6.40927L6.00989 8.41826C6.33272 7.45651 6.95542 6.61831 7.79019 6.02186C8.62496 5.42541 9.6297 5.10079 10.6627 5.09377Z" fill="#EB4335"/>
</g>
<defs>
<filter id="filter0_d_6_2996" x="-9.5" y="-8" width="40" height="40" filterUnits="userSpaceOnUse" color-interpolation-filters="sRGB">
<feFlood flood-opacity="0" result="BackgroundImageFix"/>
<feColorMatrix in="SourceAlpha" type="matrix" values="0 0 0 0 0 0 0 0 0 0 0 0 0 0 0 0 0 0 127 0" result="hardAlpha"/>
<feOffset dy="2"/>
<feGaussianBlur stdDeviation="5"/>
<feComposite in2="hardAlpha" operator="out"/>
<feColorMatrix type="matrix" values="0 0 0 0 0 0 0 0 0 0 0 0 0 0 0 0 0 0 0.08 0"/>
<feBlend mode="normal" in2="BackgroundImageFix" result="effect1_dropShadow_6_2996"/>
<feBlend mode="normal" in="SourceGraphic" in2="effect1_dropShadow_6_2996" result="shape"/>
</filter>
<clipPath id="clip0_6_2996">
<rect width="20" height="20" fill="white" transform="translate(0.5)"/>
</clipPath>
</defs>
</svg>
